<svg width="477" height="267" viewBox="0 0 477 267" fill="none" xmlns="http://www.w3.org/2000/svg">
<g clip-path="url(#clip0_2_22)">
<path d="M185.198 239.226C182.631 240.069 179.875 240.28 177.196 239.839C174.517 239.398 172.004 238.32 169.9 236.709C164.542 232.508 162.862 225.587 161.496 219.178L157.453 200.223L165.917 205.668C172.004 209.583 178.228 213.624 182.443 219.295C186.657 224.966 188.497 232.707 185.111 238.844" fill="#E6E6E6"/>
<path d="M184.474 262.175C185.331 256.346 186.212 250.442 185.611 244.55C185.077 239.317 183.368 234.207 179.889 230.016C178.043 227.796 175.795 225.894 173.249 224.395C172.585 224.004 171.974 224.987 172.635 225.377C177.041 227.978 180.449 231.819 182.367 236.346C184.486 241.381 184.827 246.869 184.461 252.217C184.241 255.451 183.773 258.664 183.301 261.873C183.264 262.018 183.287 262.171 183.366 262.301C183.445 262.43 183.574 262.527 183.726 262.572C183.882 262.611 184.047 262.591 184.187 262.517C184.327 262.443 184.431 262.32 184.474 262.175Z" fill="#F2F2F2"/>
<path d="M176.223 251.86C175.122 253.423 173.609 254.694 171.829 255.552C170.05 256.41 168.063 256.826 166.062 256.759C160.918 256.531 156.63 253.177 152.77 249.994L141.353 240.577L148.909 240.239C154.343 239.996 159.918 239.77 165.094 241.335C170.269 242.9 175.043 246.668 175.989 251.672" fill="#E6E6E6"/>
<path d="M186.895 265.526C182.772 258.71 177.989 251.136 169.443 248.715C167.067 248.044 164.575 247.803 162.102 248.007C161.323 248.069 161.518 249.192 162.296 249.129C166.441 248.807 170.578 249.83 174.01 252.024C177.313 254.124 179.885 257.044 182.062 260.141C183.395 262.037 184.589 264.014 185.784 265.989C186.166 266.62 187.282 266.164 186.895 265.526Z" fill="#F2F2F2"/>
<path d="M297.415 128.991L207.518 198.592C206.386 199.466 204.931 199.884 203.469 199.757C202.008 199.629 200.66 198.965 199.723 197.91L161.826 155.198C160.891 154.141 160.443 152.781 160.579 151.416C160.716 150.051 161.427 148.792 162.556 147.916L252.454 78.3154C253.585 77.4417 255.041 77.0227 256.502 77.1505C257.964 77.2783 259.311 77.9424 260.249 78.997L298.145 121.71C299.08 122.766 299.529 124.126 299.392 125.491C299.255 126.856 298.544 128.115 297.415 128.991Z" fill="#CCCCCC"/>
<path d="M293.813 126.895L205.982 194.896C205.399 195.346 204.649 195.562 203.896 195.496C203.143 195.43 202.449 195.088 201.966 194.545L165.783 153.763C165.301 153.219 165.07 152.518 165.14 151.815C165.211 151.111 165.577 150.463 166.159 150.012L253.99 82.0112C254.572 81.561 255.323 81.3452 256.075 81.4111C256.828 81.4769 257.522 81.819 258.005 82.3623L294.189 123.144C294.671 123.689 294.902 124.389 294.831 125.092C294.761 125.796 294.395 126.444 293.813 126.895Z" fill="white"/>
<path d="M297.862 141.13L279.797 139.55L292.726 130.045L299.691 137.895C299.963 138.195 300.131 138.564 300.175 138.954C300.218 139.345 300.134 139.738 299.934 140.084C299.802 140.318 299.623 140.526 299.405 140.695C299.192 140.859 298.945 140.982 298.68 141.057C298.415 141.132 298.137 141.157 297.862 141.13Z" fill="#CCCCCC"/>
<path d="M261.585 110.904L217.153 145.304C216.881 145.514 216.568 145.672 216.231 145.77C215.894 145.867 215.54 145.901 215.19 145.87C214.839 145.84 214.498 145.745 214.186 145.591C213.874 145.437 213.598 145.227 213.373 144.974C213.148 144.72 212.979 144.428 212.875 144.113C212.771 143.799 212.734 143.468 212.767 143.14C212.8 142.812 212.902 142.494 213.066 142.202C213.231 141.911 213.455 141.653 213.727 141.443L258.159 107.043C258.43 106.833 258.744 106.675 259.08 106.578C259.417 106.48 259.771 106.446 260.122 106.477C260.473 106.508 260.814 106.603 261.126 106.756C261.437 106.91 261.714 107.12 261.939 107.373C262.163 107.627 262.333 107.919 262.437 108.234C262.541 108.549 262.577 108.879 262.544 109.207C262.512 109.535 262.41 109.854 262.245 110.145C262.081 110.436 261.856 110.694 261.585 110.904Z" fill="#CCCCCC"/>
<path d="M239.839 113.899L209.873 137.1C209.325 137.524 208.619 137.728 207.91 137.666C207.201 137.604 206.548 137.281 206.094 136.769C205.639 136.257 205.421 135.598 205.488 134.935C205.554 134.273 205.899 133.663 206.447 133.239L236.413 110.038C236.961 109.614 237.668 109.41 238.376 109.472C239.085 109.534 239.738 109.857 240.193 110.369C240.647 110.881 240.865 111.54 240.799 112.203C240.732 112.865 240.387 113.475 239.839 113.899Z" fill="#CCCCCC"/>
<path d="M193.407 161.347C198.039 161.347 201.795 157.839 201.795 153.512C201.795 149.184 198.039 145.676 193.407 145.676C188.774 145.676 185.019 149.184 185.019 153.512C185.019 157.839 188.774 161.347 193.407 161.347Z" fill="#6C63FF"/>
<path d="M260.13 137.805C261.612 137.805 262.814 136.683 262.814 135.298C262.814 133.913 261.612 132.791 260.13 132.791C258.647 132.791 257.445 133.913 257.445 135.298C257.445 136.683 258.647 137.805 260.13 137.805Z" fill="#E6E6E6"/>
<path d="M267.363 132.205C268.845 132.205 270.047 131.083 270.047 129.698C270.047 128.313 268.845 127.191 267.363 127.191C265.88 127.191 264.679 128.313 264.679 129.698C264.679 131.083 265.88 132.205 267.363 132.205Z" fill="#E6E6E6"/>
<path d="M274.596 126.605C276.078 126.605 277.28 125.483 277.28 124.098C277.28 122.713 276.078 121.591 274.596 121.591C273.113 121.591 271.912 122.713 271.912 124.098C271.912 125.483 273.113 126.605 274.596 126.605Z" fill="#E6E6E6"/>
<path d="M231.814 261.16L237.976 261.159L240.908 238.956L231.813 238.956L231.814 261.16Z" fill="#FFB8B8"/>
<path d="M230.242 259.28L242.378 259.28H242.378C243.394 259.28 244.4 259.467 245.338 259.83C246.276 260.193 247.129 260.725 247.847 261.396C248.565 262.067 249.135 262.863 249.523 263.739C249.912 264.616 250.112 265.555 250.112 266.504V266.739L230.243 266.74L230.242 259.28Z" fill="#2F2E41"/>
<path d="M209.698 261.16L215.86 261.159L218.792 238.956L209.697 238.956L209.698 261.16Z" fill="#FFB8B8"/>
<path d="M208.126 259.28L220.262 259.28H220.262C221.278 259.28 222.284 259.467 223.222 259.83C224.16 260.193 225.013 260.725 225.731 261.396C226.449 262.067 227.019 262.863 227.407 263.739C227.796 264.616 227.996 265.555 227.996 266.504V266.739L208.127 266.74L208.126 259.28Z" fill="#2F2E41"/>
<path d="M215.882 254.366H215.881L210.641 254.365C210.054 254.367 209.49 254.155 209.069 253.775C208.647 253.394 208.4 252.875 208.381 252.328L208.216 248.045C206.892 213.797 205.522 178.384 214.005 162.466L214.072 162.341L242.159 161.392L247.798 209.712C248.039 211.773 247.951 213.856 247.537 215.892L240.082 252.586C239.981 253.083 239.693 253.53 239.269 253.845C238.844 254.161 238.313 254.323 237.772 254.303L231.886 254.125C231.577 254.113 231.275 254.043 230.997 253.919C230.718 253.794 230.471 253.618 230.268 253.4C230.066 253.183 229.913 252.929 229.819 252.655C229.725 252.38 229.693 252.091 229.723 251.804L234.347 217.866C234.505 216.402 234.362 214.922 233.927 213.507L228.177 194.729C228.13 194.573 228.026 194.438 227.885 194.345C227.743 194.253 227.572 194.208 227.399 194.22C227.227 194.231 227.064 194.297 226.937 194.408C226.811 194.518 226.729 194.665 226.705 194.825L218.122 252.544C218.045 253.048 217.776 253.51 217.365 253.844C216.954 254.179 216.427 254.364 215.882 254.366Z" fill="#2F2E41"/>
<path d="M219.241 113.083C226.059 113.083 231.586 107.919 231.586 101.55C231.586 95.1814 226.059 90.0183 219.241 90.0183C212.423 90.0183 206.896 95.1814 206.896 101.55C206.896 107.919 212.423 113.083 219.241 113.083Z" fill="#FFB8B8"/>
<path d="M240.842 164.958H215.297C214.972 164.958 214.652 164.893 214.356 164.767C214.061 164.641 213.798 164.457 213.586 164.227C213.374 163.998 213.217 163.729 213.126 163.437C213.035 163.146 213.012 162.84 213.059 162.54L214.321 154.466L206.91 135.425C206.145 133.459 205.861 131.358 206.078 129.277C206.295 127.195 207.009 125.185 208.166 123.394C209.323 121.604 210.895 120.078 212.766 118.929C214.637 117.78 216.759 117.036 218.978 116.753C222.138 116.341 225.357 116.886 228.163 118.306C230.969 119.727 233.214 121.95 234.57 124.649L236.198 127.884L243.066 162.46C243.127 162.765 243.115 163.079 243.031 163.379C242.947 163.679 242.794 163.958 242.582 164.197C242.369 164.435 242.104 164.627 241.803 164.759C241.502 164.89 241.174 164.958 240.842 164.958Z" fill="#6C63FF"/>
<path d="M186.917 185.212C187.685 185.045 188.406 184.723 189.027 184.268C189.648 183.813 190.155 183.236 190.512 182.578C190.869 181.921 191.067 181.198 191.092 180.461C191.117 179.724 190.969 178.991 190.658 178.313L210.564 136.303L199.177 133.624L183.191 175.76C182.007 176.324 181.085 177.273 180.6 178.429C180.115 179.585 180.1 180.867 180.56 182.032C181.019 183.197 181.92 184.164 183.091 184.75C184.263 185.337 185.624 185.501 186.917 185.212Z" fill="#FFB8B8"/>
<path d="M207.869 143.816L196.795 138.973C196.479 138.836 196.2 138.636 195.975 138.388C195.75 138.14 195.584 137.85 195.49 137.537C195.396 137.224 195.375 136.896 195.429 136.575C195.483 136.254 195.61 135.948 195.802 135.677L202.533 126.181C203.297 124.68 204.667 123.524 206.343 122.965C208.019 122.405 209.864 122.49 211.473 123.199C213.082 123.908 214.325 125.184 214.929 126.748C215.533 128.311 215.449 130.035 214.695 131.54L211.215 142.416C211.115 142.727 210.945 143.015 210.716 143.259C210.486 143.504 210.203 143.699 209.885 143.832C209.568 143.965 209.223 144.032 208.876 144.029C208.528 144.026 208.184 143.954 207.869 143.816Z" fill="#6C63FF"/>
<path d="M269.952 77.1081C270.193 77.8105 270.265 78.5536 270.165 79.285C270.065 80.0164 269.794 80.7184 269.372 81.3415C268.95 81.9647 268.387 82.4937 267.722 82.8915C267.057 83.2892 266.307 83.546 265.525 83.6437L237.091 121.129L228.797 113.364L259.354 78.9593C259.265 77.7206 259.666 76.4945 260.481 75.5134C261.295 74.5324 262.467 73.8644 263.773 73.6363C265.079 73.4081 266.43 73.6355 267.569 74.2754C268.708 74.9153 269.556 75.9232 269.952 77.1081Z" fill="#FFB8B8"/>
<path d="M243.666 116.729C243.707 117.051 243.673 117.379 243.565 117.688C243.458 117.997 243.281 118.281 243.046 118.52L234.828 126.882C233.83 128.259 232.288 129.21 230.541 129.527C228.793 129.844 226.982 129.5 225.506 128.572C224.029 127.643 223.007 126.205 222.663 124.574C222.319 122.942 222.682 121.25 223.672 119.868L228.956 109.605C229.107 109.312 229.323 109.053 229.591 108.846C229.859 108.638 230.171 108.487 230.507 108.402C230.843 108.317 231.194 108.301 231.538 108.355C231.881 108.409 232.207 108.531 232.495 108.713L242.62 115.119C242.908 115.301 243.15 115.539 243.331 115.817C243.512 116.095 243.626 116.406 243.666 116.729Z" fill="#6C63FF"/>
<path d="M235.461 96.7233C235.454 95.6797 235.298 94.6415 235 93.6357C233.011 86.7701 225.668 82.6493 218.3 83.6834C216.867 83.2996 215.383 83.1056 213.892 83.107C210.1 83.107 206.432 84.3737 203.552 86.6785C200.672 88.9833 198.769 92.1742 198.187 95.6749L192.235 131.469H224.404L229.598 100.233C229.791 99.0721 229.836 97.8941 229.733 96.7233H235.461Z" fill="#2F2E41"/>
<path d="M275.444 267H169.388C169.254 267 169.127 266.951 169.032 266.863C168.938 266.774 168.885 266.655 168.885 266.531C168.885 266.406 168.938 266.287 169.032 266.199C169.127 266.11 169.254 266.061 169.388 266.061H275.444C275.577 266.061 275.705 266.11 275.799 266.199C275.893 266.287 275.946 266.406 275.946 266.531C275.946 266.655 275.893 266.774 275.799 266.863C275.705 266.951 275.577 267 275.444 267Z" fill="#CCCCCC"/>
<path d="M382.289 36.4673C383.024 36.4012 383.766 36.4865 384.463 36.7173C385.159 36.9481 385.793 37.3187 386.319 37.803C386.846 38.2873 387.252 38.8736 387.51 39.5205C387.768 40.1674 387.87 40.8593 387.811 41.5473L404.251 48.3062L396.409 53.0347L382 45.8914C380.769 45.7215 379.648 45.1357 378.848 44.2451C378.049 43.3545 377.627 42.221 377.663 41.0593C377.699 39.8977 378.189 38.7886 379.042 37.9423C379.894 37.0959 381.05 36.5711 382.289 36.4673Z" fill="#A0616A"/>
<path d="M448.602 28.036C455.42 28.036 460.947 22.8729 460.947 16.5038C460.947 10.1348 455.42 4.97168 448.602 4.97168C441.784 4.97168 436.257 10.1348 436.257 16.5038C436.257 22.8729 441.784 28.036 448.602 28.036Z" fill="#A0616A"/>
<path d="M426.259 180.94L420.097 180.94L417.165 158.737L426.26 158.737L426.259 180.94Z" fill="#A0616A"/>
<path d="M427.831 186.52L407.961 186.519V186.285C407.961 185.336 408.161 184.396 408.55 183.52C408.938 182.643 409.508 181.847 410.226 181.176C410.944 180.505 411.797 179.973 412.735 179.61C413.674 179.247 414.679 179.06 415.695 179.06L427.831 179.061L427.831 186.52Z" fill="#2F2E41"/>
<path d="M451.893 180.94L445.731 180.94L442.8 158.737L451.894 158.737L451.893 180.94Z" fill="#A0616A"/>
<path d="M453.465 186.52L433.595 186.519V186.285C433.595 185.336 433.796 184.396 434.184 183.52C434.573 182.643 435.142 181.847 435.861 181.176C436.579 180.505 437.431 179.973 438.37 179.61C439.308 179.247 440.314 179.06 441.329 179.06L453.465 179.061L453.465 186.52Z" fill="#2F2E41"/>
<path d="M451.601 176.211C451.509 176.211 451.417 176.206 451.325 176.195L442.305 175.158C441.777 175.098 441.288 174.865 440.926 174.502C440.563 174.138 440.349 173.666 440.323 173.169L437.694 117.876C437.685 117.719 437.62 117.569 437.51 117.451C437.399 117.332 437.25 117.252 437.085 117.222C436.92 117.192 436.749 117.214 436.599 117.286C436.449 117.357 436.329 117.473 436.258 117.616L429.505 138.643L428.115 172.42C428.103 172.711 428.027 172.997 427.891 173.259C427.755 173.521 427.562 173.755 427.325 173.944C427.088 174.133 426.811 174.275 426.513 174.36C426.214 174.444 425.9 174.47 425.59 174.436L417.779 173.577C417.22 173.518 416.706 173.265 416.337 172.869C415.967 172.473 415.769 171.963 415.782 171.438L416.445 139.644L421.737 89.7368L421.974 89.745L454.153 90.9037L453.863 174.105C453.861 174.664 453.622 175.2 453.198 175.595C452.774 175.989 452.2 176.211 451.601 176.211Z" fill="#2F2E41"/>
<path d="M452.934 95.4643C452.914 95.4643 452.895 95.4643 452.875 95.4638L420.466 94.6705C420.148 94.6628 419.836 94.5926 419.549 94.4645C419.262 94.3364 419.008 94.1533 418.802 93.9272C418.596 93.7011 418.443 93.437 418.354 93.1521C418.265 92.8672 418.241 92.568 418.284 92.2738L424.511 49.4566C424.9 46.5655 425.937 43.7836 427.555 41.2923C429.173 38.8011 431.335 36.6566 433.901 34.9989C436.157 33.5478 438.72 32.5646 441.417 32.1154C444.114 31.6662 446.882 31.7613 449.537 32.3944C460.849 35.0722 467.635 46.4194 464.664 57.689L455.131 93.8567C455.007 94.3144 454.725 94.7209 454.327 95.012C453.929 95.303 453.439 95.4622 452.934 95.4643Z" fill="#3F3D56"/>
<path d="M410.416 61.4636C408.28 61.466 406.19 60.886 404.402 59.7946L385.502 48.2113C385.226 48.0418 384.992 47.8176 384.818 47.5546C384.644 47.2917 384.534 46.9963 384.496 46.6893C384.458 46.3823 384.492 46.0712 384.597 45.7779C384.701 45.4846 384.873 45.2163 385.101 44.992L387.948 42.1839C388.258 41.8761 388.661 41.6628 389.103 41.5718C389.545 41.4808 390.006 41.5162 390.427 41.6736L411.538 49.5268L431.095 36.4803C432.009 35.8703 433.05 35.4443 434.149 35.2292C435.249 35.014 436.385 35.0145 437.485 35.2305C438.584 35.4465 439.624 35.8734 440.538 36.4841C441.452 37.0949 442.22 37.8761 442.794 38.7785C443.368 39.6809 443.735 40.6848 443.873 41.7267C444.01 42.7685 443.914 43.8256 443.592 44.8311C443.269 45.8366 442.726 46.7686 441.998 47.5681C441.27 48.3676 440.372 49.0172 439.361 49.4759L415.191 60.4429C413.702 61.1163 412.07 61.4653 410.416 61.4636Z" fill="#3F3D56"/>
<path d="M452.88 27.5322C454.986 27.9968 457.527 28.3532 459.032 26.9008C459.299 26.6266 459.537 26.3294 459.744 26.0133L461.712 23.2068C463.219 21.0568 464.753 18.8508 465.391 16.3507C465.758 14.9142 465.815 13.4239 465.56 11.9665C465.305 10.509 464.742 9.11346 463.905 7.86085C463.067 6.60824 461.972 5.52357 460.682 4.66982C459.392 3.81606 457.933 3.21026 456.391 2.8876C453.452 2.27306 450.577 1.2157 447.573 1.40858C444.569 1.60145 441.047 1.53813 438.526 -1.52588e-05C438.683 0.685716 439.532 3.71557 439.532 3.71557C439.532 3.71557 435.742 6.9641 434.981 7.77412C435.977 7.36202 437.06 7.16853 438.147 7.20852C439.235 7.2485 440.298 7.52089 441.256 8.00476C442.213 8.48863 443.039 9.1711 443.67 9.99971C444.301 10.8283 444.72 11.781 444.895 12.7846C445.11 14.0175 444.984 15.3848 445.768 16.3968C446.514 17.3592 447.851 17.6964 448.976 18.2521C450.596 19.1146 451.834 20.4896 452.465 22.1293C453.096 23.7689 453.079 25.5652 452.417 27.1942L452.88 27.5322Z" fill="#2F2E41"/>
<path d="M438.057 99.5944H335.726C334.44 99.5931 333.207 99.1151 332.297 98.2655C331.388 97.4158 330.876 96.2637 330.874 95.0621V46.4423C330.876 45.2406 331.388 44.0886 332.297 43.2389C333.207 42.3892 334.44 41.9112 335.726 41.9099H438.057C439.344 41.9112 440.577 42.3892 441.487 43.2389C442.396 44.0886 442.908 45.2406 442.909 46.4423V95.0621C442.908 96.2637 442.396 97.4158 441.487 98.2655C440.577 99.1151 439.344 99.5931 438.057 99.5944Z" fill="#CCCCCC"/>
<path d="M436.881 96.2982H336.903C336.24 96.2975 335.605 96.0513 335.136 95.6136C334.667 95.1758 334.404 94.5824 334.403 93.9633V47.541C334.404 46.922 334.667 46.3285 335.136 45.8908C335.605 45.4531 336.24 45.2069 336.903 45.2062H436.881C437.544 45.2069 438.179 45.4531 438.648 45.8908C439.116 46.3285 439.38 46.922 439.381 47.541V93.9633C439.38 94.5824 439.116 95.1758 438.648 95.6136C438.179 96.0513 437.544 96.2975 436.881 96.2982Z" fill="white"/>
<path d="M431.091 108.019L419.847 97.5153L434.263 97.8557V106.792C434.267 107.136 434.159 107.473 433.954 107.759C433.75 108.045 433.458 108.267 433.116 108.395C432.887 108.484 432.641 108.531 432.393 108.532C432.151 108.531 431.911 108.485 431.687 108.397C431.464 108.309 431.261 108.18 431.091 108.019Z" fill="#CCCCCC"/>
<path d="M424.708 68.6704H374.131C373.507 68.6704 372.909 68.4389 372.467 68.0268C372.026 67.6147 371.778 67.0557 371.778 66.4729C371.778 65.8901 372.026 65.3311 372.467 64.919C372.909 64.5069 373.507 64.2754 374.131 64.2754H424.708C425.332 64.2754 425.93 64.5069 426.372 64.919C426.813 65.3311 427.061 65.8901 427.061 66.4729C427.061 67.0557 426.813 67.6147 426.372 68.0268C425.93 68.4389 425.332 68.6704 424.708 68.6704Z" fill="#CCCCCC"/>
<path d="M408.241 59.331H374.131C373.822 59.3314 373.515 59.2749 373.23 59.1646C372.944 59.0544 372.684 58.8926 372.465 58.6885C372.246 58.4844 372.073 58.242 371.954 57.9752C371.836 57.7084 371.775 57.4223 371.775 57.1335C371.775 56.8446 371.836 56.5586 371.954 56.2918C372.073 56.025 372.246 55.7826 372.465 55.5785C372.684 55.3744 372.944 55.2126 373.23 55.1024C373.515 54.9921 373.822 54.9356 374.131 54.936H408.241C408.865 54.936 409.463 55.1675 409.905 55.5796C410.346 55.9917 410.594 56.5507 410.594 57.1335C410.594 57.7163 410.346 58.2753 409.905 58.6874C409.463 59.0995 408.865 59.331 408.241 59.331Z" fill="#CCCCCC"/>
<path d="M353.194 68.6704C357.254 68.6704 360.545 65.5959 360.545 61.8032C360.545 58.0105 357.254 54.936 353.194 54.936C349.134 54.936 345.843 58.0105 345.843 61.8032C345.843 65.5959 349.134 68.6704 353.194 68.6704Z" fill="#6C63FF"/>
<path d="M409.122 86.5684C410.421 86.5684 411.474 85.5845 411.474 84.3709C411.474 83.1572 410.421 82.1734 409.122 82.1734C407.822 82.1734 406.769 83.1572 406.769 84.3709C406.769 85.5845 407.822 86.5684 409.122 86.5684Z" fill="#E6E6E6"/>
<path d="M417.355 86.5684C418.654 86.5684 419.708 85.5845 419.708 84.3709C419.708 83.1572 418.654 82.1734 417.355 82.1734C416.056 82.1734 415.003 83.1572 415.003 84.3709C415.003 85.5845 416.056 86.5684 417.355 86.5684Z" fill="#E6E6E6"/>
<path d="M425.589 86.5684C426.888 86.5684 427.941 85.5845 427.941 84.3709C427.941 83.1572 426.888 82.1734 425.589 82.1734C424.29 82.1734 423.236 83.1572 423.236 84.3709C423.236 85.5845 424.29 86.5684 425.589 86.5684Z" fill="#E6E6E6"/>
<path d="M436.473 93.8124C436.554 93.1264 436.795 92.4653 437.18 91.8758C437.564 91.2862 438.082 90.7826 438.697 90.4003C439.313 90.018 440.01 89.7664 440.741 89.6631C441.471 89.5599 442.217 89.6075 442.926 89.8027L453.372 76.1538L456.723 84.2919L446.289 96.0055C445.859 97.096 445.016 98.0013 443.919 98.5498C442.822 99.0984 441.548 99.252 440.338 98.9817C439.128 98.7114 438.066 98.0359 437.354 97.0831C436.642 96.1304 436.328 94.9667 436.473 93.8124Z" fill="#A0616A"/>
<path d="M448.439 93.076C448.275 93.0888 448.11 93.0849 447.946 93.0644C447.618 93.0234 447.304 92.9155 447.025 92.7484C446.747 92.5812 446.511 92.3589 446.335 92.0972L444.128 88.8253C443.885 88.4681 443.763 88.0509 443.778 87.628C443.793 87.2051 443.944 86.7963 444.212 86.455L457.583 69.292L448.892 48.3623C448.116 46.5208 448.145 44.468 448.974 42.6465C449.803 40.825 451.364 39.3805 453.322 38.6245C454.429 38.191 455.624 37.992 456.823 38.0417C458.021 38.0914 459.193 38.3886 460.254 38.9119C461.315 39.4352 462.238 40.1716 462.958 41.0682C463.678 41.9648 464.176 42.9993 464.417 44.0972L469.809 68.6881C470.184 70.4223 470.074 72.2176 469.488 73.9002C468.902 75.5828 467.862 77.0956 466.466 78.2921L449.774 92.5308C449.406 92.8454 448.936 93.0372 448.439 93.076Z" fill="#3F3D56"/>
<path d="M476.497 187.649H370.442C370.308 187.649 370.18 187.6 370.086 187.512C369.992 187.424 369.939 187.304 369.939 187.18C369.939 187.055 369.992 186.936 370.086 186.848C370.18 186.76 370.308 186.71 370.442 186.71H476.497C476.631 186.71 476.759 186.76 476.853 186.848C476.947 186.936 477 187.055 477 187.18C477 187.304 476.947 187.424 476.853 187.512C476.759 187.6 476.631 187.649 476.497 187.649Z" fill="#CCCCCC"/>
<path d="M128.985 70.7941H26.6537C25.3674 70.7927 24.1341 70.3148 23.2245 69.4651C22.3149 68.6154 21.8033 67.4634 21.8018 66.2617V17.6419C21.8033 16.4403 22.3149 15.2882 23.2245 14.4385C24.1341 13.5888 25.3674 13.1109 26.6537 13.1095H128.985C130.271 13.1109 131.504 13.5888 132.414 14.4385C133.324 15.2882 133.835 16.4403 133.837 17.6419V66.2617C133.835 67.4634 133.324 68.6154 132.414 69.4651C131.504 70.3148 130.271 70.7927 128.985 70.7941Z" fill="#CCCCCC"/>
<path d="M127.809 67.4978H27.83C27.1673 67.4971 26.532 67.2509 26.0634 66.8132C25.5948 66.3755 25.3312 65.782 25.3305 65.163V18.7407C25.3312 18.1216 25.5948 17.5282 26.0634 17.0904C26.532 16.6527 27.1673 16.4065 27.83 16.4058H127.809C128.471 16.4065 129.107 16.6527 129.575 17.0904C130.044 17.5282 130.307 18.1216 130.308 18.7407V65.163C130.307 65.782 130.044 66.3755 129.575 66.8132C129.107 67.2509 128.471 67.4971 127.809 67.4978Z" fill="white"/>
<path d="M122.019 79.2184L110.774 68.7149L125.19 69.0553V77.9913C125.194 78.3353 125.086 78.6725 124.882 78.9585C124.677 79.2446 124.385 79.4663 124.043 79.5946C123.814 79.6841 123.569 79.7305 123.32 79.7311C123.078 79.7304 122.838 79.6847 122.614 79.5967C122.391 79.5087 122.188 79.3801 122.019 79.2184Z" fill="#CCCCCC"/>
<path d="M115.636 39.87H65.0581C64.4342 39.87 63.8359 39.6385 63.3947 39.2264C62.9535 38.8143 62.7057 38.2554 62.7057 37.6725C62.7057 37.0897 62.9535 36.5308 63.3947 36.1187C63.8359 35.7066 64.4342 35.475 65.0581 35.475H115.636C116.259 35.475 116.858 35.7066 117.299 36.1187C117.74 36.5308 117.988 37.0897 117.988 37.6725C117.988 38.2554 117.74 38.8143 117.299 39.2264C116.858 39.6385 116.259 39.87 115.636 39.87Z" fill="#CCCCCC"/>
<path d="M99.1685 30.5306H65.0581C64.4342 30.5306 63.8359 30.2991 63.3947 29.887C62.9535 29.4749 62.7057 28.916 62.7057 28.3331C62.7057 27.7503 62.9535 27.1914 63.3947 26.7793C63.8359 26.3671 64.4342 26.1356 65.0581 26.1356H99.1685C99.7924 26.1356 100.391 26.3671 100.832 26.7793C101.273 27.1914 101.521 27.7503 101.521 28.3331C101.521 28.916 101.273 29.4749 100.832 29.887C100.391 30.2991 99.7924 30.5306 99.1685 30.5306Z" fill="#CCCCCC"/>
<path d="M44.1213 39.87C48.1814 39.87 51.4727 36.7955 51.4727 33.0028C51.4727 29.2102 48.1814 26.1356 44.1213 26.1356C40.0613 26.1356 36.77 29.2102 36.77 33.0028C36.77 36.7955 40.0613 39.87 44.1213 39.87Z" fill="#6C63FF"/>
<path d="M100.049 57.768C101.348 57.768 102.402 56.7842 102.402 55.5705C102.402 54.3569 101.348 53.373 100.049 53.373C98.7499 53.373 97.6967 54.3569 97.6967 55.5705C97.6967 56.7842 98.7499 57.768 100.049 57.768Z" fill="#E6E6E6"/>
<path d="M108.283 57.768C109.582 57.768 110.635 56.7842 110.635 55.5705C110.635 54.3569 109.582 53.373 108.283 53.373C106.983 53.373 105.93 54.3569 105.93 55.5705C105.93 56.7842 106.983 57.768 108.283 57.768Z" fill="#E6E6E6"/>
<path d="M116.516 57.768C117.815 57.768 118.869 56.7842 118.869 55.5705C118.869 54.3569 117.815 53.373 116.516 53.373C115.217 53.373 114.164 54.3569 114.164 55.5705C114.164 56.7842 115.217 57.768 116.516 57.768Z" fill="#E6E6E6"/>
<path d="M124.741 8.43813C124.046 8.67193 123.414 9.04528 122.89 9.53189C122.366 10.0185 121.962 10.6065 121.708 11.2546C121.453 11.9026 121.354 12.5949 121.417 13.2826C121.48 13.9704 121.704 14.6368 122.072 15.2351L110.3 27.9079L119.553 29.0529L129.313 16.8432C130.348 16.1982 131.094 15.2211 131.409 14.0969C131.724 12.9727 131.587 11.7796 131.024 10.7436C130.46 9.70755 129.509 8.90063 128.351 8.47573C127.193 8.05082 125.909 8.03744 124.741 8.43813Z" fill="#FFB8B8"/>
<path d="M46.1409 13.5117C46.392 14.1608 46.4876 14.8535 46.4211 15.541C46.3546 16.2284 46.1276 16.8939 45.7559 17.4905C45.3843 18.0871 44.8772 18.6004 44.2703 18.9941C43.6634 19.3878 42.9714 19.6525 42.2432 19.7694L39.3138 36.3233L32.4642 30.4004L36.2961 15.5885C36.167 14.4327 36.4962 13.2728 37.2214 12.3285C37.9466 11.3843 39.0174 10.7214 40.2309 10.4654C41.4444 10.2093 42.7163 10.3781 43.8055 10.9395C44.8948 11.501 45.7257 12.4162 46.1409 13.5117Z" fill="#FFB8B8"/>
<path d="M64.5377 180.94L70.7 180.94L73.6314 158.737L64.5367 158.737L64.5377 180.94Z" fill="#FFB8B8"/>
<path d="M62.9658 179.061L75.1013 179.06H75.1018C76.1174 179.06 77.1231 179.247 78.0614 179.61C78.9997 179.973 79.8523 180.505 80.5704 181.176C81.2886 181.847 81.8583 182.643 82.2469 183.52C82.6356 184.396 82.8356 185.336 82.8356 186.285V186.519L62.9662 186.52L62.9658 179.061Z" fill="#2F2E41"/>
<path d="M32.8718 180.94L39.0341 180.94L41.9655 158.737L32.8708 158.737L32.8718 180.94Z" fill="#FFB8B8"/>
<path d="M31.2999 179.061L43.4354 179.06H43.4359C44.4515 179.06 45.4572 179.247 46.3955 179.61C47.3338 179.973 48.1863 180.505 48.9045 181.176C49.6226 181.847 50.1923 182.643 50.581 183.52C50.9696 184.396 51.1697 185.336 51.1696 186.285V186.519L31.3002 186.52L31.2999 179.061Z" fill="#2F2E41"/>
<path d="M63.2513 29.3495C70.0694 29.3495 75.5966 24.1864 75.5966 17.8173C75.5966 11.4483 70.0694 6.28516 63.2513 6.28516C56.4333 6.28516 50.9061 11.4483 50.9061 17.8173C50.9061 24.1864 56.4333 29.3495 63.2513 29.3495Z" fill="#FFB8B8"/>
<path d="M61.7715 173.564L60.7508 112.804C60.7482 112.632 60.6785 112.467 60.5548 112.34C60.4311 112.213 60.2619 112.133 60.0791 112.114C59.8963 112.095 59.7125 112.14 59.5623 112.239C59.412 112.338 59.3057 112.485 59.2634 112.652L42.5302 172.083C42.4043 172.559 42.1074 172.98 41.6892 173.275C41.271 173.571 40.7568 173.723 40.2326 173.707L31.0395 173.34C30.7269 173.327 30.4206 173.254 30.1398 173.126C29.859 172.997 29.6098 172.815 29.408 172.592C29.2062 172.369 29.0562 172.109 28.9674 171.828C28.8786 171.548 28.853 171.254 28.8922 170.964L43.091 94.5909L43.1201 94.3754L82.6684 96.1233L82.9264 96.1343L74.4457 173.691C74.4012 174.222 74.1446 174.718 73.7267 175.08C73.3089 175.443 72.7604 175.645 72.1903 175.647H64.0331C63.4395 175.645 62.8704 175.426 62.4477 175.036C62.025 174.647 61.7823 174.119 61.7715 173.564Z" fill="#2F2E41"/>
<path d="M93.0076 101.27L35.618 96.8707C35.2716 96.8441 34.9364 96.7434 34.6384 96.5763C34.3405 96.4091 34.0878 96.1801 33.8999 95.9069C33.7121 95.6337 33.5942 95.3238 33.5554 95.0012C33.5165 94.6786 33.5578 94.3519 33.6761 94.0466L42.7138 70.7053L43.2338 43.0016C43.2527 41.9959 43.4851 41.0038 43.9177 40.0827C44.3502 39.1616 44.9742 38.3299 45.7535 37.6358C46.5328 36.9417 47.4519 36.3991 48.4575 36.0394C49.463 35.6797 50.535 35.5102 51.6112 35.5405L55.4277 32.3088H69.4108L70.6284 33.7999L80.358 35.1966C82.091 35.4521 83.6901 36.2215 84.9192 37.391C86.1483 38.5606 86.9422 40.0683 87.1838 41.6916L95.4342 98.8827C95.4772 99.181 95.4514 99.4845 95.3586 99.7728C95.2658 100.061 95.1082 100.328 94.8962 100.554C94.6842 100.781 94.4228 100.963 94.1295 101.088C93.8362 101.212 93.5178 101.277 93.1955 101.278C93.1332 101.278 93.0705 101.275 93.0076 101.27Z" fill="#2F2E41"/>
<path d="M81.826 37.8822L106.296 31.1849L117.37 17.5649C117.675 17.1897 118.106 16.9205 118.593 16.8001C119.081 16.6796 119.597 16.7148 120.061 16.9L126.975 19.6608C127.27 19.7785 127.535 19.9534 127.751 20.1739C127.968 20.3944 128.133 20.6554 128.233 20.9397C128.334 21.224 128.369 21.5251 128.336 21.8229C128.302 22.1208 128.202 22.4086 128.04 22.6673L119.764 35.9343C118.416 38.1046 116.365 39.8184 113.906 40.8282L85.125 52.7132L81.826 37.8822Z" fill="#2F2E41"/>
<path d="M34.8793 47.9005C33.4169 46.9164 32.2508 45.5969 31.4933 44.0692C30.7358 42.5415 30.4125 40.8572 30.5547 39.1789L31.6286 25.8876C31.6729 25.3567 31.9296 24.8609 32.3475 24.4988C32.7655 24.1368 33.3142 23.9351 33.8842 23.9338H33.9042L42.0126 24.0012C42.3448 24.0041 42.6722 24.0752 42.9716 24.2096C43.271 24.3439 43.5351 24.5383 43.7451 24.7787C43.955 25.0192 44.1057 25.2999 44.1864 25.6009C44.2672 25.9019 44.2759 26.2158 44.2121 26.5204L42.7077 33.6908L53.444 37.9285L44.4031 54.3589L34.8793 47.9005Z" fill="#2F2E41"/>
<path d="M70.433 3.98917C70.433 3.98917 57.5229 -2.50454 50.486 5.15943C43.4491 12.8234 53.167 24.8082 53.167 24.8082L67.0136 26.4395C67.0136 26.4395 67.5162 17.6468 70.813 17.8175C74.1098 17.9882 84.3485 6.89322 70.433 3.98917Z" fill="#2F2E41"/>
<path d="M106.558 187.18H0.502634C0.369327 187.18 0.24148 187.13 0.147218 187.042C0.0529556 186.954 0 186.835 0 186.71C0 186.586 0.0529556 186.466 0.147218 186.378C0.24148 186.29 0.369327 186.241 0.502634 186.241H106.558C106.692 186.241 106.82 186.29 106.914 186.378C107.008 186.466 107.061 186.586 107.061 186.71C107.061 186.835 107.008 186.954 106.914 187.042C106.82 187.13 106.692 187.18 106.558 187.18Z" fill="#CCCCCC"/>
</g>
<defs>
<clipPath id="clip0_2_22">
<rect width="477" height="267" fill="white"/>
</clipPath>
</defs>
</svg>
